<svg width="18" height="10" viewBox="0 0 18 10" fill="none" xmlns="http://www.w3.org/2000/svg">
<path d="M17.7221 0.279322C17.9 0.458174 18 0.700751 18 0.95369C18 1.20663 17.9 1.44921 17.7221 1.62807L9.67079 9.72065C9.49284 9.89951 9.2515 10 8.99985 10C8.74821 10 8.50687 9.89953 8.32893 9.72068L0.277898 1.62835C0.0999591 1.4495 -4.12677e-06 1.20692 1.27639e-10 0.953986C4.12702e-06 0.701048 0.0999753 0.458467 0.27792 0.27961C0.455865 0.100753 0.697207 0.000269573 0.948854 0.000265425C1.2005 0.000261277 1.44184 0.100736 1.61978 0.279588L8.99989 7.69755L16.3802 0.279345C16.5582 0.100487 16.7995 4.14819e-06 17.0512 1.28294e-10C17.3028 -4.14793e-06 17.5442 0.100471 17.7221 0.279322Z" fill="#FFC412"/>
</svg>
