<svg width="20" height="20" viewBox="0 0 20 20" fill="none" xmlns="http://www.w3.org/2000/svg">
<g clip-path="url(#clip0_477_478166)">
<path d="M4.88886 4.75656H5.17499C5.60984 4.75656 5.96233 4.40394 5.96233 3.96922V0.983805C5.96233 0.549081 5.60984 0.196509 5.17499 0.196509H4.88886C4.45405 0.196509 4.10156 0.549081 4.10156 0.983805V3.96922C4.10156 4.40394 4.45405 4.75656 4.88886 4.75656ZM14.9875 4.73705H15.2737C15.7085 4.73705 16.061 4.38448 16.061 3.94971V0.964257C16.061 0.529574 15.7085 0.177002 15.2737 0.177002H14.9875C14.5526 0.177002 14.2001 0.529574 14.2001 0.964257V3.94967C14.2002 4.38448 14.5527 4.73705 14.9875 4.73705Z" fill="#A4B3BA"/>
<path d="M18.7201 1.79614H16.6994V4.15551C16.6994 4.94256 16.0591 5.37667 15.2722 5.37667H14.986C14.199 5.37667 13.5587 4.73636 13.5587 3.94931V1.79614H6.60079V3.96882C6.60079 4.75586 5.96052 5.39618 5.17347 5.39618H4.88734C4.10033 5.39618 3.46006 4.75586 3.46006 3.96882V1.79614H1.27996C0.574202 1.79614 0 2.37034 0 3.07615V18.5429C0 19.2487 0.574202 19.8229 1.27996 19.8229H18.7201C19.4258 19.8229 20 19.2487 20 18.5429V3.07615C20.0001 2.37039 19.4258 1.79614 18.7201 1.79614ZM18.7201 18.5429H1.28001L1.27996 6.8628H18.7203L18.721 18.5428L18.7201 18.5429Z" fill="#A4B3BA"/>
<path d="M10.6623 10.7812H12.9606C13.0043 10.7812 13.0463 10.7638 13.0772 10.7329C13.1081 10.702 13.1255 10.66 13.1255 10.6162V8.62615C13.1255 8.5824 13.1081 8.54044 13.0772 8.5095C13.0463 8.47856 13.0043 8.46118 12.9606 8.46118H10.6623C10.6186 8.46118 10.5766 8.47856 10.5457 8.5095C10.5147 8.54044 10.4973 8.5824 10.4973 8.62615V10.6162C10.4973 10.66 10.5147 10.702 10.5457 10.7329C10.5766 10.7638 10.6186 10.7812 10.6623 10.7812ZM14.413 10.7812H16.7113C16.755 10.7812 16.797 10.7638 16.8279 10.7329C16.8588 10.702 16.8762 10.66 16.8762 10.6162V8.62615C16.8762 8.5824 16.8588 8.54044 16.8279 8.5095C16.797 8.47856 16.755 8.46118 16.7113 8.46118H14.413C14.3692 8.46118 14.3273 8.47856 14.2963 8.5095C14.2654 8.54044 14.248 8.5824 14.248 8.62615V10.6162C14.248 10.66 14.2654 10.702 14.2963 10.7329C14.3273 10.7638 14.3692 10.7812 14.413 10.7812ZM3.16106 14.0393H5.45927C5.50302 14.0393 5.54498 14.0219 5.57592 13.991C5.60685 13.96 5.62424 13.9181 5.62424 13.8743V11.8842C5.62424 11.8404 5.60685 11.7985 5.57592 11.7675C5.54498 11.7366 5.50302 11.7192 5.45927 11.7192H3.16106C3.11731 11.7192 3.07535 11.7366 3.04441 11.7675C3.01347 11.7985 2.99609 11.8404 2.99609 11.8842V13.8743C2.99609 13.9181 3.01347 13.96 3.04441 13.991C3.07535 14.0219 3.11731 14.0393 3.16106 14.0393ZM6.9117 14.0393H9.20992C9.25367 14.0393 9.29563 14.0219 9.32656 13.991C9.3575 13.96 9.37488 13.9181 9.37488 13.8743V11.8842C9.37488 11.8404 9.3575 11.7985 9.32656 11.7675C9.29563 11.7366 9.25367 11.7192 9.20992 11.7192H6.9117C6.86795 11.7192 6.82599 11.7366 6.79506 11.7675C6.76412 11.7985 6.74674 11.8404 6.74674 11.8842V13.8743C6.74674 13.9181 6.76412 13.96 6.79506 13.991C6.82599 14.0219 6.86795 14.0393 6.9117 14.0393ZM10.6624 14.0393H12.9606C13.0043 14.0393 13.0463 14.0219 13.0772 13.991C13.1081 13.96 13.1255 13.9181 13.1255 13.8743V11.8842C13.1255 11.8404 13.1081 11.7985 13.0772 11.7675C13.0463 11.7366 13.0043 11.7192 12.9606 11.7192H10.6624C10.6186 11.7192 10.5766 11.7366 10.5457 11.7675C10.5148 11.7985 10.4974 11.8404 10.4974 11.8842V13.8743C10.4974 13.9181 10.5148 13.96 10.5457 13.991C10.5766 14.0219 10.6186 14.0393 10.6624 14.0393ZM14.413 14.0393H16.7113C16.755 14.0393 16.797 14.0219 16.8279 13.991C16.8588 13.96 16.8762 13.9181 16.8762 13.8743V11.8842C16.8762 11.8404 16.8588 11.7985 16.8279 11.7675C16.797 11.7366 16.755 11.7192 16.7113 11.7192H14.413C14.3692 11.7192 14.3273 11.7366 14.2963 11.7675C14.2654 11.7985 14.248 11.8404 14.248 11.8842V13.8743C14.248 13.9181 14.2654 13.96 14.2963 13.991C14.3273 14.0219 14.3692 14.0393 14.413 14.0393ZM5.45927 14.9773H3.1611C3.11735 14.9773 3.07539 14.9946 3.04445 15.0256C3.01352 15.0565 2.99613 15.0985 2.99613 15.1422V17.1324C2.99613 17.1761 3.01352 17.2181 3.04445 17.249C3.07539 17.28 3.11735 17.2973 3.1611 17.2973H5.45931C5.50306 17.2973 5.54502 17.28 5.57596 17.249C5.6069 17.2181 5.62428 17.1761 5.62428 17.1324V15.1422C5.62425 15.0985 5.60686 15.0565 5.57592 15.0256C5.54498 14.9947 5.50302 14.9773 5.45927 14.9773ZM9.20996 14.9773H6.91175C6.868 14.9773 6.82604 14.9946 6.7951 15.0256C6.76416 15.0565 6.74678 15.0985 6.74678 15.1422V17.1324C6.74678 17.1761 6.76416 17.2181 6.7951 17.249C6.82604 17.28 6.868 17.2973 6.91175 17.2973H9.20996C9.25371 17.2973 9.29567 17.28 9.32661 17.249C9.35754 17.2181 9.37492 17.1761 9.37492 17.1324V15.1422C9.37492 15.0985 9.35754 15.0565 9.32661 15.0256C9.29567 14.9946 9.25371 14.9773 9.20996 14.9773ZM12.9606 14.9773H10.6624C10.6186 14.9773 10.5767 14.9946 10.5457 15.0256C10.5148 15.0565 10.4974 15.0985 10.4974 15.1422V17.1324C10.4974 17.1761 10.5148 17.2181 10.5457 17.249C10.5767 17.28 10.6186 17.2973 10.6624 17.2973H12.9606C13.0044 17.2973 13.0464 17.28 13.0773 17.249C13.1082 17.2181 13.1256 17.1761 13.1256 17.1324V15.1422C13.1256 15.0985 13.1082 15.0565 13.0773 15.0256C13.0464 14.9946 13.0044 14.9773 12.9606 14.9773ZM16.7113 14.9773H14.413C14.3692 14.9773 14.3273 14.9946 14.2963 15.0256C14.2654 15.0565 14.248 15.0985 14.248 15.1422V17.1324C14.248 17.1761 14.2654 17.2181 14.2963 17.249C14.3273 17.28 14.3692 17.2973 14.413 17.2973H16.7113C16.755 17.2973 16.797 17.28 16.8279 17.249C16.8588 17.2181 16.8762 17.1761 16.8762 17.1324V15.1422C16.8762 15.0985 16.8588 15.0565 16.8279 15.0256C16.797 14.9946 16.755 14.9773 16.7113 14.9773Z" fill="#A4B3BA"/>
</g>
<defs>
<clipPath id="clip0_477_478166">
<rect width="20" height="20" fill="white"/>
</clipPath>
</defs>
</svg>
