<svg width="15" height="16" viewBox="0 0 15 16" fill="none" xmlns="http://www.w3.org/2000/svg">
<path fill-rule="evenodd" clip-rule="evenodd" d="M6.17909 1.23077C6.12469 1.23077 6.07251 1.25238 6.03404 1.29086C5.99557 1.32932 5.97397 1.38149 5.97397 1.4359V3.28206H9.66628V1.4359C9.66628 1.38149 9.64466 1.32932 9.60619 1.29086C9.56772 1.25238 9.51554 1.23077 9.46114 1.23077H6.17909ZM2.74533 4.51282L3.5103 13.6924C3.51171 13.7095 3.51243 13.7265 3.51243 13.7436C3.51243 14.0156 3.62048 14.2764 3.81282 14.4688C4.00517 14.6612 4.26605 14.7692 4.53807 14.7692H11.1022C11.3742 14.7692 11.6351 14.6612 11.8273 14.4688C12.0197 14.2764 12.1278 14.0156 12.1278 13.7436C12.1278 13.7265 12.1285 13.7095 12.13 13.6924L12.8949 4.51282H2.74533ZM14.13 4.51282L13.3584 13.7712C13.3512 14.3596 13.1144 14.9225 12.6977 15.3391C12.2745 15.7622 11.7006 16 11.1022 16H4.53807C3.93963 16 3.3657 15.7622 2.94255 15.3391C2.52589 14.9225 2.28902 14.3596 2.28182 13.7712L1.51029 4.51282H1.25601C0.916145 4.51282 0.640625 4.2373 0.640625 3.89744C0.640625 3.55756 0.916145 3.28206 1.25601 3.28206H4.7432V1.4359C4.7432 1.05508 4.89447 0.689846 5.16375 0.420566C5.43304 0.151286 5.79826 0 6.17909 0H9.46114C9.84197 0 10.2072 0.151286 10.4765 0.420566C10.7457 0.689846 10.897 1.05508 10.897 1.4359V3.28206H14.3843C14.7241 3.28206 14.9997 3.55756 14.9997 3.89744C14.9997 4.2373 14.7241 4.51282 14.3843 4.51282H14.13ZM6.17909 6.5641C6.51895 6.5641 6.79447 6.83962 6.79447 7.17948V12.1025C6.79447 12.4425 6.51895 12.7179 6.17909 12.7179C5.83922 12.7179 5.5637 12.4425 5.5637 12.1025V7.17948C5.5637 6.83962 5.83922 6.5641 6.17909 6.5641ZM9.46114 6.5641C9.80101 6.5641 10.0765 6.83962 10.0765 7.17948V12.1025C10.0765 12.4425 9.80101 12.7179 9.46114 12.7179C9.12128 12.7179 8.84576 12.4425 8.84576 12.1025V7.17948C8.84576 6.83962 9.12128 6.5641 9.46114 6.5641Z" fill="#DD1417"/>
</svg>
